<svg xmlns="http://www.w3.org/2000/svg" width="375" height="54" viewBox="0 0 375 54">
  <rect width="375" height="54" rx="12" fill="#000000"/>
  <svg x="22" y="9" width="36" height="36" viewBox="0 0 814 1000">
    <path d="M788.1 340.9c-5.8 4.5-108.2 62.2-108.2 190.5 0 148.4 130.3 200.9 134.2 202.2-.6 3.2-20.7 71.9-68.7 141.9-42.8 61.6-87.5 123.1-155.5 123.1s-85.5-39.5-164-39.5c-76 0-103.7 40.8-165.9 40.8s-105-43.4-150.3-109.2C159.4 835 105.8 729.2 105.8 611.7c0-168.6 111.9-259.9 222.3-259.9 59.2 0 108.5 39.3 162.8 39.3 52.2 0 110.5-41.8 175.8-41.8zm-7.1-181.6c31.1-39.3 53.7-94.3 53.7-149.3 0-7.6-.6-15.3-1.9-21.6-50.9 1.9-110.8 33.7-147.1 75.8-28.5 32.4-55.1 83.6-55.1 135.5 0 8.3 1.3 16.6 1.9 19.2 3.2.6 8.4 1.3 13.6 1.3 45.4 0 102.5-30.4 134.9-60.9z" fill="white"/>
  </svg>
  <text x="74" y="33" font-family="-apple-system, SF Pro Display, sans-serif" font-size="17" font-weight="600" fill="white">Apple로 계속하기</text>
</svg>
