<svg xmlns="http://www.w3.org/2000/svg" viewBox="0 0 814 162">
  <rect width="814" height="162" rx="20" fill="black"/>
  <path d="M196.53 81.03c-.16-16.22 13.29-24.11 13.89-24.48-7.58-11.07-19.35-12.59-23.52-12.73-9.96-1.02-19.55 5.93-24.61 5.93-5.15 0-13-5.81-21.41-5.64-10.93.16-21.08 6.42-26.7 16.18-11.48 19.87-2.93 49.21 8.19 65.32 5.48 7.88 11.98 16.69 20.51 16.38 8.27-.33 11.38-5.31 21.37-5.31 9.91 0 12.78 5.31 21.45 5.14 8.9-.16 14.52-7.97 19.95-15.9 6.36-9.1 8.95-17.98 9.09-18.44-.2-.08-17.37-6.64-17.21-26.45zm-16.1-48.6c4.41-5.51 7.41-13.07 6.6-20.71-6.38.27-14.38 4.38-19.01 9.76-4.08 4.76-7.72 12.55-6.77 19.92 7.16.54 14.48-3.57 19.17-8.97z" fill="white"/>
  <text x="270" y="108" font-family="-apple-system, BlinkMacSystemFont, 'SF Pro Display', sans-serif" font-size="48" font-weight="600" fill="white">Sign in with Apple</text>
</svg>
