<svg xmlns="http://www.w3.org/2000/svg" width="375" height="54" viewBox="0 0 375 54">
  <rect width="375" height="54" rx="12" fill="white" stroke="#E5E7EB" stroke-width="1.5"/>
  <svg x="22" y="11" width="32" height="32" viewBox="0 0 32 32">
    <path d="M30.0014 16.3109C30.0014 15.1598 29.9061 14.3198 29.6998 13.4487H16.2871V18.6442H24.1601C24.0014 19.9354 23.1442 21.8798 21.2394 23.1864L21.2127 23.3604L25.4536 26.58L25.7474 26.6087C28.4458 24.1665 30.0014 20.5731 30.0014 16.3109Z" fill="#4285F4"/>
    <path d="M16.2863 29.9998C20.1434 29.9998 23.3814 28.7553 25.7466 26.6086L21.2386 23.1863C20.0323 24.0108 18.4132 24.5863 16.2863 24.5863C12.5086 24.5863 9.30225 22.1441 8.15929 18.7686L7.99176 18.7825L3.58208 22.127L3.52441 22.2841C5.87359 26.8574 10.699 29.9998 16.2863 29.9998Z" fill="#34A853"/>
    <path d="M8.15964 18.769C7.86121 17.8979 7.68981 16.9645 7.68981 16.0001C7.68981 15.0356 7.86121 14.1023 8.14377 13.2312L8.13574 13.0456L3.67083 9.64746L3.52476 9.71556C2.55651 11.6134 2.00098 13.7445 2.00098 16.0001C2.00098 18.2556 2.55651 20.3867 3.52476 22.2845L8.15964 18.769Z" fill="#FBBC05"/>
    <path d="M16.2864 7.4133C18.9689 7.4133 20.7784 8.54885 21.8102 9.4978L25.8419 5.64C23.3658 3.38445 20.1435 2 16.2864 2C10.699 2 5.87359 5.1422 3.52441 9.71549L8.14342 13.2311C9.30226 9.85555 12.5086 7.4133 16.2864 7.4133Z" fill="#EB4335"/>
  </svg>
  <text x="70" y="33" font-family="Roboto, Arial, sans-serif" font-size="17" font-weight="600" fill="#1A1A2E">Google로 계속하기</text>
</svg>
